<svg xmlns="http://www.w3.org/2000/svg" viewBox="0 0 429 115">
    <path d="M269.435 25.509c18.17 0 31.976 14.012 31.976 32.246 0 18.323-13.806 32.245-31.976 32.245-17.993 0-31.977-13.922-31.977-32.245 0-18.234 13.984-32.246 31.977-32.246zm-73.166.898c19.24 0 32.51 13.114 32.51 31.527 0 18.234-13.538 31.886-32.688 31.886-5.01 0-9.448-.473-13.456-.533l-.796-.006h-6.413l-.089-.09s.43-4.242.445-11.622V38.533c0-7.496-.429-11.875-.444-12.032v-.004l.088-.09h20.843zm-178.01 0c12.203 0 22.803 7.006 22.803 19.401 0 12.755-10.51 20.3-22.802 20.3-1.19 0-4.572-.164-6.272-.335l-.23-.024-.09.09v11.73c.016 7.243.43 11.464.445 11.618v.005l-.088.09H.089L0 89.191s.43-4.243.445-11.623V38.533C.445 31.037.016 26.658 0 26.5v-.004l.089-.09h18.17zm55.025 0l.089.09s.418 1.77 1.658 4.739l.123.29 22.179 51.019c1.91 4.203 3.482 6.529 3.56 6.642l.003.005v.09H88.604l-.09-.09-.007-.02c-.086-.212-.824-2.053-2.013-5.319l-.117-.32-4.097-9.61H55.202l-3.83 9.61c-1.47 3.665-1.765 5.21-1.78 5.625l-.001.034-.09.09H37.21v-.09s1.693-2.22 3.43-6.327l.133-.32 21.02-51.018c1.295-3.045 1.67-4.91 1.692-5.025v-.005l.09-.09h9.709zm44.781 0l33.669 43.743h.089V38.12c-.016-7.38-.446-11.623-.446-11.623l.09-.09h10.866l.09.09s-.446 4.401-.446 12.036v39.036c.016 7.38.445 11.623.445 11.623l-.089.09H152.18L118.332 44.91h-.089v32.246c0 7.634.446 12.036.446 12.036l-.09.09h-10.866l-.09-.09s.446-4.402.446-12.036V32.695c0-1.348-.713-3.324-2.049-6.198l.09-.09h11.935zm214.08 0c12.203 0 20.13 9.162 20.13 19.581 0 7.52-5.877 15.042-12.268 16.638l-.291.069v.09c2.223.603 4.446 2.448 5.96 4.82l.186.3 6.057 10.06c3.955 6.59 7.413 10.92 7.647 11.211l.013.016v.09h-14.252l-.089-.09s-1.72-4.249-5.75-10.87l-.217-.358-5.077-8.263c-2.093-3.341-4.356-4.53-10.046-4.58l-.376-.001v12.036c0 7.496.43 11.874.445 12.031v.005l-.089.09h-11.935l-.09-.09s.43-4.243.446-11.623v-39.45c-.015-7.243-.43-11.464-.445-11.618v-.004l.089-.09h19.952zm69.653 0l.089.09s.445 1.886 1.781 5.03l22.179 51.018c1.96 4.311 3.563 6.647 3.563 6.647v.09h-12.292l-.09-.09s-.8-1.976-2.137-5.66l-4.097-9.61h-27.078l-3.83 9.61c-1.514 3.773-1.781 5.3-1.781 5.66l-.09.09h-12.291v-.09s1.781-2.336 3.563-6.647l21.02-51.018c1.337-3.144 1.693-5.03 1.693-5.03l.089-.09h9.709zm-132.363 9.431c-11.58 0-20.576 9.521-20.576 21.917 0 12.395 8.996 21.916 20.576 21.916 11.668 0 20.664-9.521 20.664-21.916 0-12.396-8.996-21.917-20.664-21.917zm-74.146.809h-8.284v39.97c0 1.706.179 2.066 1.158 2.335 1.604.45 4.365.539 7.393.539 13.183 0 21.823-9.341 21.823-21.467 0-12.216-8.64-21.377-22.09-21.377zm-126.993 4.76h-.09L59.39 63.593h18.437l-9.53-22.186zm328.514 0h-.09l-8.818 22.186h18.438l-9.53-22.186zm-378.194-4.67h-6.948v18.592c1.425.27 4.632.45 6.057.45 7.66 0 11.936-3.593 11.936-9.97 0-6.557-4.9-9.073-11.045-9.073zm312.015-.09h-6.859V54.79c1.693.36 4.186.36 5.612.36 7.838 0 11.49-4.312 11.49-9.072 0-5.03-3.563-9.431-10.243-9.431zm-55.228-18.324c1.068 0 2.048.899 2.048 2.066 0 1.258-.98 2.156-2.048 2.156a2.119 2.119 0 01-2.139-2.156c0-1.167.98-2.066 2.139-2.066zm-11.936 0c1.069 0 2.049.899 2.049 2.066 0 1.258-.98 2.156-2.05 2.156a2.119 2.119 0 01-2.137-2.156c0-1.167.98-2.066 2.138-2.066zm5.968-.628c1.068 0 2.048.898 2.048 2.066 0 1.257-.98 2.155-2.048 2.155a2.119 2.119 0 01-2.138-2.155c0-1.168.98-2.066 2.138-2.066zm10.777-15.18l.445.09.09.09-2.583 13.832-.09.09-3.562-.809-.09-.09 5.701-13.113.09-.09zm-21.555 0l.09.09 5.7 13.114-.09.09-3.562.808-.09-.09-2.582-13.832.089-.09.445-.09zM269.702 0l.089.09 1.514 15.449-.089.09h-3.563l-.09-.09 1.604-15.45.09-.089h.445z" fill="#27251F" fill-rule="evenodd"/>
</svg>
