<svg width="161" height="24" viewBox="0 0 161 24" fill="none" xmlns="http://www.w3.org/2000/svg">
<g clip-path="url(#clip0_22519_108711)">
<path d="M46.0428 15.2707H49.4064C50.3578 15.2707 50.9601 15.1393 51.4886 14.8158C52.2991 14.3289 52.786 13.4095 52.786 12.3588C52.786 11.3081 52.3023 10.3855 51.4886 9.90176C50.9601 9.57821 50.3578 9.44687 49.4064 9.44687H46.0428V15.2739V15.2707ZM43.1245 23.6092V6.72076H49.5025C50.6397 6.72076 51.6744 6.90336 52.4913 7.24933C54.5287 8.1591 55.7972 10.1164 55.7972 12.3556C55.7972 14.5948 54.5287 16.5488 52.4881 17.4618C51.6744 17.8078 50.6397 17.9904 49.5025 17.9904H46.0428V23.6092H43.1245Z" fill="#211710"/>
<path d="M61.4097 14.4186L60.2564 17.465H65.8336L64.6804 14.4186C64.0525 12.7528 63.0722 10.2157 63.0722 10.2157H63.0146C63.0146 10.2157 62.0343 12.7528 61.4065 14.4186M68.1721 23.6092L66.8779 20.1911H59.2121L57.9179 23.6092H54.7754L61.5538 6.72076H64.6355L71.4139 23.6092H68.1721Z" fill="#211710"/>
<path d="M85.5666 23.6092L79.0989 14.835L76.5906 11.4618V15.969V23.6092H73.6755V6.72076H76.6195L83.084 15.4949L85.5922 18.8649V14.3577V6.72076H88.5106V23.6092H85.5666Z" fill="#211710"/>
<path d="M95.0518 20.8382H97.5985C99.479 20.8382 100.879 20.5051 101.882 19.8195C103.339 18.8297 104.15 17.1351 104.101 15.165C104.15 13.2013 103.339 11.5035 101.882 10.5136C100.879 9.82808 99.4758 9.49492 97.5985 9.49492H95.0518V20.8414V20.8382ZM92.1367 23.6092V6.72076H97.7235C100.283 6.72076 102.449 7.32941 103.986 8.48264C106.04 9.99145 107.167 12.362 107.167 15.165C107.167 17.968 106.036 20.3385 103.986 21.8441C102.449 22.9973 100.283 23.606 97.7235 23.606H92.1367V23.6092Z" fill="#211710"/>
<path d="M118.091 9.10091C114.676 9.10091 112.196 11.6508 112.196 15.165C112.196 18.6791 114.676 21.229 118.091 21.229C121.506 21.229 123.985 18.6791 123.985 15.165C123.985 11.6508 121.506 9.10091 118.091 9.10091ZM118.091 24C112.985 24 109.134 20.2008 109.134 15.165C109.134 10.1292 112.985 6.32996 118.091 6.32996C123.197 6.32996 127.048 10.126 127.048 15.165C127.048 20.204 123.197 24 118.091 24Z" fill="#211710"/>
<path d="M132.516 15.2707H136.27C137.222 15.2707 137.824 15.1393 138.353 14.8158C139.163 14.3289 139.647 13.4095 139.647 12.3588C139.647 11.3081 139.163 10.3855 138.349 9.89855C137.821 9.57501 137.219 9.44367 136.267 9.44367H132.513V15.2707H132.516ZM139.653 23.6092L136.427 17.9904H132.516V23.6092H129.598V6.72076H136.366C137.507 6.72076 138.538 6.90336 139.355 7.24933C141.393 8.1591 142.661 10.1164 142.661 12.3556C142.661 14.5948 141.486 16.3214 139.522 17.2664L139.419 17.3145L143.071 23.606H139.65L139.653 23.6092Z" fill="#211710"/>
<path d="M150.862 14.4186L149.709 17.465H155.286L154.132 14.4186C153.505 12.7528 152.524 10.2157 152.524 10.2157H152.467C152.467 10.2157 151.486 12.7528 150.859 14.4186M157.624 23.6092L156.33 20.1911H148.664L147.37 23.6092H144.228L151.006 6.72076H154.088L160.866 23.6092H157.624Z" fill="#211710"/>
<path d="M118.693 5.00694C118.693 4.66417 118.405 4.40149 118.088 4.40149C117.745 4.40149 117.457 4.66417 117.457 5.00694C117.457 5.37533 117.745 5.63801 118.088 5.63801C118.402 5.63801 118.693 5.37533 118.693 5.00694Z" fill="#211710"/>
<path d="M117.992 0L117.518 3.70956H118.636L118.187 0H117.992Z" fill="#211710"/>
<path d="M120.433 5.00694C120.433 4.66417 120.144 4.40149 119.827 4.40149C119.484 4.40149 119.196 4.66417 119.196 5.00694C119.196 5.37533 119.484 5.63801 119.827 5.63801C120.141 5.63801 120.433 5.37533 120.433 5.00694Z" fill="#211710"/>
<path d="M121.032 0L119.433 3.70956H120.58L121.227 0H121.032Z" fill="#211710"/>
<path d="M115.72 5.00694C115.72 5.37533 116.009 5.63801 116.326 5.63801C116.669 5.63801 116.957 5.37533 116.957 5.00694C116.957 4.66417 116.669 4.40149 116.326 4.40149C116.012 4.40149 115.72 4.66417 115.72 5.00694Z" fill="#211710"/>
<path d="M114.926 0L115.573 3.70956H116.72L115.121 0H114.926Z" fill="#211710"/>
<path d="M0 6.72076H1.92846L8.07902 15.937L14.2296 6.72076H16.158V23.6092H14.252V9.93059L8.10144 18.977H8.00534L1.85798 9.95301V23.6092H0V6.72076Z" fill="#211710"/>
<path d="M25.5824 16.9269L18.5637 6.72076H20.8798L26.5723 15.165L32.3128 6.72076H34.5328L27.5109 16.9012V23.6092H25.5824V16.9269Z" fill="#211710"/>
</g>
<defs>
<clipPath id="clip0_22519_108711">
<rect width="160.866" height="24" fill="white"/>
</clipPath>
</defs>
</svg>
